<mxfile host="app.diagrams.net" modified="2022-03-23T13:15:54.235Z" agent="5.0 (Macintosh; Intel Mac OS X 10_15_7) AppleWebKit/605.1.15 (KHTML, like Gecko) Version/15.4 Safari/605.1.15" etag="E3LKMkzb43gi8Ytsk2HM" version="17.1.3" type="github">
  <diagram id="GkwxvoKI0v0egCr2lqlU" name="Page-1">
    <mxGraphModel dx="1351" dy="921" grid="1" gridSize="10" guides="1" tooltips="1" connect="1" arrows="1" fold="1" page="1" pageScale="1" pageWidth="850" pageHeight="1100" math="0" shadow="0">
      <root>
        <mxCell id="0" />
        <mxCell id="1" parent="0" />
        <mxCell id="uQF2bjW9X4T5isOUZy0i-20" style="rounded=0;orthogonalLoop=1;jettySize=auto;html=1;exitX=1;exitY=0.5;exitDx=0;exitDy=0;entryX=0;entryY=0.5;entryDx=0;entryDy=0;endArrow=none;endFill=0;fontColor=#FF0000;strokeColor=#000000;" parent="1" source="uQF2bjW9X4T5isOUZy0i-22" target="uQF2bjW9X4T5isOUZy0i-25" edge="1">
          <mxGeometry relative="1" as="geometry" />
        </mxCell>
        <mxCell id="uQF2bjW9X4T5isOUZy0i-21" style="edgeStyle=none;rounded=0;orthogonalLoop=1;jettySize=auto;html=1;exitX=1;exitY=0.5;exitDx=0;exitDy=0;entryX=0;entryY=0.5;entryDx=0;entryDy=0;endArrow=none;endFill=0;fontColor=#FF0000;strokeColor=#000000;" parent="1" source="uQF2bjW9X4T5isOUZy0i-47" target="uQF2bjW9X4T5isOUZy0i-28" edge="1">
          <mxGeometry relative="1" as="geometry" />
        </mxCell>
        <mxCell id="LwhTmWAjGXsf5G4LRFbt-48" style="edgeStyle=none;rounded=0;orthogonalLoop=1;jettySize=auto;html=1;exitX=1;exitY=0.5;exitDx=0;exitDy=0;entryX=0;entryY=0.5;entryDx=0;entryDy=0;fontColor=#FF0000;endArrow=none;endFill=0;strokeColor=#FF0000;" parent="1" source="uQF2bjW9X4T5isOUZy0i-22" target="LwhTmWAjGXsf5G4LRFbt-44" edge="1">
          <mxGeometry relative="1" as="geometry" />
        </mxCell>
        <mxCell id="uQF2bjW9X4T5isOUZy0i-22" value="" style="ellipse;whiteSpace=wrap;html=1;aspect=fixed;fillColor=#FF0000;strokeColor=#FF0000;" parent="1" vertex="1">
          <mxGeometry x="520" y="448.5" width="30" height="30" as="geometry" />
        </mxCell>
        <mxCell id="uQF2bjW9X4T5isOUZy0i-23" style="edgeStyle=none;rounded=0;orthogonalLoop=1;jettySize=auto;html=1;exitX=1;exitY=0.5;exitDx=0;exitDy=0;entryX=0;entryY=0.5;entryDx=0;entryDy=0;endArrow=none;endFill=0;" parent="1" source="uQF2bjW9X4T5isOUZy0i-25" target="uQF2bjW9X4T5isOUZy0i-30" edge="1">
          <mxGeometry relative="1" as="geometry" />
        </mxCell>
        <mxCell id="uQF2bjW9X4T5isOUZy0i-25" value="" style="ellipse;whiteSpace=wrap;html=1;aspect=fixed;fillColor=none;" parent="1" vertex="1">
          <mxGeometry x="609" y="416" width="30" height="30" as="geometry" />
        </mxCell>
        <mxCell id="uQF2bjW9X4T5isOUZy0i-27" style="edgeStyle=none;rounded=0;orthogonalLoop=1;jettySize=auto;html=1;exitX=1;exitY=0.5;exitDx=0;exitDy=0;entryX=0;entryY=0.5;entryDx=0;entryDy=0;endArrow=none;endFill=0;" parent="1" source="uQF2bjW9X4T5isOUZy0i-28" target="uQF2bjW9X4T5isOUZy0i-35" edge="1">
          <mxGeometry relative="1" as="geometry">
            <mxPoint x="630" y="570" as="sourcePoint" />
          </mxGeometry>
        </mxCell>
        <mxCell id="uQF2bjW9X4T5isOUZy0i-28" value="" style="ellipse;whiteSpace=wrap;html=1;aspect=fixed;fillColor=none;" parent="1" vertex="1">
          <mxGeometry x="609" y="620" width="30" height="30" as="geometry" />
        </mxCell>
        <mxCell id="LwhTmWAjGXsf5G4LRFbt-18" style="edgeStyle=none;rounded=0;orthogonalLoop=1;jettySize=auto;html=1;exitX=1;exitY=0.5;exitDx=0;exitDy=0;entryX=0;entryY=0.5;entryDx=0;entryDy=0;fontColor=#000000;endArrow=none;endFill=0;strokeColor=#000000;" parent="1" source="uQF2bjW9X4T5isOUZy0i-30" target="LwhTmWAjGXsf5G4LRFbt-15" edge="1">
          <mxGeometry relative="1" as="geometry" />
        </mxCell>
        <mxCell id="uQF2bjW9X4T5isOUZy0i-30" value="" style="ellipse;whiteSpace=wrap;html=1;aspect=fixed;" parent="1" vertex="1">
          <mxGeometry x="730" y="416" width="30" height="30" as="geometry" />
        </mxCell>
        <mxCell id="uQF2bjW9X4T5isOUZy0i-31" style="edgeStyle=none;rounded=0;orthogonalLoop=1;jettySize=auto;html=1;exitX=1;exitY=0.5;exitDx=0;exitDy=0;entryX=0;entryY=0.5;entryDx=0;entryDy=0;fontSize=18;endArrow=none;endFill=0;fontColor=#FF0000;strokeColor=#FF0000;" parent="1" source="uQF2bjW9X4T5isOUZy0i-33" target="uQF2bjW9X4T5isOUZy0i-40" edge="1">
          <mxGeometry relative="1" as="geometry" />
        </mxCell>
        <mxCell id="uQF2bjW9X4T5isOUZy0i-33" value="" style="ellipse;whiteSpace=wrap;html=1;aspect=fixed;fontColor=#FF0000;fillColor=#FF0000;strokeColor=#FF0000;" parent="1" vertex="1">
          <mxGeometry x="730" y="474" width="30" height="30" as="geometry" />
        </mxCell>
        <mxCell id="uQF2bjW9X4T5isOUZy0i-34" style="edgeStyle=none;rounded=0;orthogonalLoop=1;jettySize=auto;html=1;exitX=1;exitY=0.5;exitDx=0;exitDy=0;entryX=0;entryY=0.5;entryDx=0;entryDy=0;fontSize=18;endArrow=none;endFill=0;" parent="1" source="uQF2bjW9X4T5isOUZy0i-35" target="LwhTmWAjGXsf5G4LRFbt-22" edge="1">
          <mxGeometry relative="1" as="geometry">
            <mxPoint x="850" y="555.0000000000002" as="targetPoint" />
          </mxGeometry>
        </mxCell>
        <mxCell id="uQF2bjW9X4T5isOUZy0i-35" value="" style="ellipse;whiteSpace=wrap;html=1;aspect=fixed;" parent="1" vertex="1">
          <mxGeometry x="730" y="620" width="30" height="30" as="geometry" />
        </mxCell>
        <mxCell id="5CpdGke6OMUvPAaMOOam-5" style="rounded=0;orthogonalLoop=1;jettySize=auto;html=1;exitX=1;exitY=0.5;exitDx=0;exitDy=0;entryX=0;entryY=0.5;entryDx=0;entryDy=0;endArrow=none;endFill=0;" edge="1" parent="1" source="uQF2bjW9X4T5isOUZy0i-38" target="5CpdGke6OMUvPAaMOOam-1">
          <mxGeometry relative="1" as="geometry" />
        </mxCell>
        <mxCell id="5CpdGke6OMUvPAaMOOam-6" style="rounded=0;orthogonalLoop=1;jettySize=auto;html=1;exitX=1;exitY=0.5;exitDx=0;exitDy=0;entryX=0;entryY=0.5;entryDx=0;entryDy=0;endArrow=none;endFill=0;" edge="1" parent="1" source="uQF2bjW9X4T5isOUZy0i-38" target="5CpdGke6OMUvPAaMOOam-3">
          <mxGeometry relative="1" as="geometry" />
        </mxCell>
        <mxCell id="uQF2bjW9X4T5isOUZy0i-38" value="" style="ellipse;whiteSpace=wrap;html=1;aspect=fixed;" parent="1" vertex="1">
          <mxGeometry x="280" y="519" width="30" height="30" as="geometry" />
        </mxCell>
        <mxCell id="uQF2bjW9X4T5isOUZy0i-39" style="edgeStyle=none;rounded=0;orthogonalLoop=1;jettySize=auto;html=1;exitX=1;exitY=0.5;exitDx=0;exitDy=0;entryX=0;entryY=0.5;entryDx=0;entryDy=0;fontSize=18;endArrow=none;endFill=0;fontColor=#FF0000;strokeColor=#FF0000;" parent="1" source="uQF2bjW9X4T5isOUZy0i-40" target="uQF2bjW9X4T5isOUZy0i-43" edge="1">
          <mxGeometry relative="1" as="geometry" />
        </mxCell>
        <mxCell id="uQF2bjW9X4T5isOUZy0i-40" value="" style="ellipse;whiteSpace=wrap;html=1;aspect=fixed;fontColor=#FF0000;fillColor=#FF0000;strokeColor=#FF0000;" parent="1" vertex="1">
          <mxGeometry x="848" y="474" width="30" height="30" as="geometry" />
        </mxCell>
        <mxCell id="LwhTmWAjGXsf5G4LRFbt-53" style="edgeStyle=none;rounded=0;orthogonalLoop=1;jettySize=auto;html=1;exitX=1;exitY=0.5;exitDx=0;exitDy=0;entryX=0;entryY=0.5;entryDx=0;entryDy=0;fontColor=#FF0000;endArrow=none;endFill=0;strokeColor=#FF0000;" parent="1" source="uQF2bjW9X4T5isOUZy0i-43" target="LwhTmWAjGXsf5G4LRFbt-28" edge="1">
          <mxGeometry relative="1" as="geometry" />
        </mxCell>
        <mxCell id="uQF2bjW9X4T5isOUZy0i-43" value="" style="ellipse;whiteSpace=wrap;html=1;aspect=fixed;fontColor=#FF0000;fillColor=#FF0000;strokeColor=#FF0000;" parent="1" vertex="1">
          <mxGeometry x="996" y="474" width="30" height="30" as="geometry" />
        </mxCell>
        <mxCell id="uQF2bjW9X4T5isOUZy0i-46" value="&lt;span style=&quot;font-family: &amp;#34;georgia&amp;#34; ; font-size: 27px&quot;&gt;&amp;lt;/s&amp;gt;\&amp;lt;s&amp;gt;&lt;/span&gt;" style="text;html=1;align=center;verticalAlign=middle;resizable=0;points=[];autosize=1;strokeColor=none;fillColor=none;" parent="1" vertex="1">
          <mxGeometry x="150" y="525" width="130" height="20" as="geometry" />
        </mxCell>
        <mxCell id="LwhTmWAjGXsf5G4LRFbt-50" style="edgeStyle=none;rounded=0;orthogonalLoop=1;jettySize=auto;html=1;exitX=1;exitY=0.5;exitDx=0;exitDy=0;entryX=0;entryY=0.5;entryDx=0;entryDy=0;fontColor=#FF0000;endArrow=none;endFill=0;strokeColor=#FF0000;" parent="1" source="uQF2bjW9X4T5isOUZy0i-47" target="LwhTmWAjGXsf5G4LRFbt-45" edge="1">
          <mxGeometry relative="1" as="geometry" />
        </mxCell>
        <mxCell id="uQF2bjW9X4T5isOUZy0i-47" value="" style="ellipse;whiteSpace=wrap;html=1;aspect=fixed;fillColor=#FF0000;strokeColor=#FF0000;" parent="1" vertex="1">
          <mxGeometry x="520" y="591.5" width="30" height="30" as="geometry" />
        </mxCell>
        <mxCell id="uQF2bjW9X4T5isOUZy0i-48" value="&lt;font style=&quot;font-size: 27px&quot; face=&quot;Georgia&quot;&gt;where&lt;/font&gt;" style="text;html=1;align=center;verticalAlign=middle;resizable=0;points=[];autosize=1;strokeColor=none;fillColor=none;" parent="1" vertex="1">
          <mxGeometry x="425" y="439" width="90" height="20" as="geometry" />
        </mxCell>
        <mxCell id="uQF2bjW9X4T5isOUZy0i-49" value="&lt;font style=&quot;font-size: 27px&quot; face=&quot;Georgia&quot;&gt;where&lt;/font&gt;" style="text;html=1;align=center;verticalAlign=middle;resizable=0;points=[];autosize=1;strokeColor=none;fillColor=none;" parent="1" vertex="1">
          <mxGeometry x="424" y="581" width="90" height="20" as="geometry" />
        </mxCell>
        <mxCell id="uQF2bjW9X4T5isOUZy0i-50" value="&lt;font style=&quot;font-size: 27px&quot; face=&quot;Georgia&quot;&gt;is&lt;/font&gt;" style="text;html=1;align=center;verticalAlign=middle;resizable=0;points=[];autosize=1;fillColor=none;" parent="1" vertex="1">
          <mxGeometry x="560" y="419" width="40" height="20" as="geometry" />
        </mxCell>
        <mxCell id="uQF2bjW9X4T5isOUZy0i-51" value="&lt;font face=&quot;Georgia&quot;&gt;&lt;span style=&quot;font-size: 27px&quot;&gt;is&lt;/span&gt;&lt;/font&gt;" style="text;html=1;align=center;verticalAlign=middle;resizable=0;points=[];autosize=1;fillColor=none;" parent="1" vertex="1">
          <mxGeometry x="560" y="623" width="40" height="20" as="geometry" />
        </mxCell>
        <mxCell id="uQF2bjW9X4T5isOUZy0i-52" value="&lt;font style=&quot;font-size: 27px&quot; face=&quot;Georgia&quot;&gt;the&lt;/font&gt;" style="text;html=1;align=center;verticalAlign=middle;resizable=0;points=[];autosize=1;strokeColor=none;fillColor=none;fontColor=#FF0000;" parent="1" vertex="1">
          <mxGeometry x="660" y="551" width="50" height="20" as="geometry" />
        </mxCell>
        <mxCell id="uQF2bjW9X4T5isOUZy0i-53" value="&lt;font style=&quot;font-size: 27px&quot; face=&quot;Georgia&quot;&gt;the&lt;/font&gt;" style="text;html=1;align=center;verticalAlign=middle;resizable=0;points=[];autosize=1;strokeColor=none;fillColor=none;fontColor=#FF0000;" parent="1" vertex="1">
          <mxGeometry x="660" y="463" width="50" height="20" as="geometry" />
        </mxCell>
        <mxCell id="uQF2bjW9X4T5isOUZy0i-54" value="&lt;font style=&quot;font-size: 27px&quot; face=&quot;Georgia&quot;&gt;these&lt;/font&gt;" style="text;html=1;align=center;verticalAlign=middle;resizable=0;points=[];autosize=1;strokeColor=none;fillColor=none;" parent="1" vertex="1">
          <mxGeometry x="645" y="406" width="80" height="20" as="geometry" />
        </mxCell>
        <mxCell id="uQF2bjW9X4T5isOUZy0i-55" value="&lt;font style=&quot;font-size: 27px&quot; face=&quot;Georgia&quot;&gt;there&lt;/font&gt;" style="text;html=1;align=center;verticalAlign=middle;resizable=0;points=[];autosize=1;strokeColor=none;fillColor=none;" parent="1" vertex="1">
          <mxGeometry x="645" y="610" width="80" height="20" as="geometry" />
        </mxCell>
        <mxCell id="uQF2bjW9X4T5isOUZy0i-56" value="&lt;font style=&quot;font-size: 27px&quot; face=&quot;Georgia&quot;&gt;book&lt;/font&gt;" style="text;html=1;align=center;verticalAlign=middle;resizable=0;points=[];autosize=1;strokeColor=none;fillColor=none;fontColor=#000000;" parent="1" vertex="1">
          <mxGeometry x="770" y="406" width="70" height="20" as="geometry" />
        </mxCell>
        <mxCell id="uQF2bjW9X4T5isOUZy0i-57" value="&lt;font style=&quot;font-size: 27px&quot; face=&quot;Georgia&quot;&gt;book&lt;/font&gt;" style="text;html=1;align=center;verticalAlign=middle;resizable=0;points=[];autosize=1;strokeColor=none;fillColor=none;fontColor=#FF0000;" parent="1" vertex="1">
          <mxGeometry x="770" y="463" width="70" height="20" as="geometry" />
        </mxCell>
        <mxCell id="uQF2bjW9X4T5isOUZy0i-60" value="&lt;font style=&quot;font-size: 27px&quot; face=&quot;Georgia&quot;&gt;&amp;lt;/s&amp;gt;\&amp;lt;s&amp;gt;&lt;/font&gt;" style="text;html=1;align=center;verticalAlign=middle;resizable=0;points=[];autosize=1;strokeColor=none;fillColor=none;fontColor=#000000;" parent="1" vertex="1">
          <mxGeometry x="871" y="405" width="130" height="20" as="geometry" />
        </mxCell>
        <mxCell id="uQF2bjW9X4T5isOUZy0i-73" style="edgeStyle=none;rounded=0;orthogonalLoop=1;jettySize=auto;html=1;exitX=1;exitY=0.5;exitDx=0;exitDy=0;entryX=0;entryY=0.5;entryDx=0;entryDy=0;fontSize=18;endArrow=none;endFill=0;" parent="1" source="uQF2bjW9X4T5isOUZy0i-75" target="uQF2bjW9X4T5isOUZy0i-82" edge="1">
          <mxGeometry relative="1" as="geometry" />
        </mxCell>
        <mxCell id="uQF2bjW9X4T5isOUZy0i-74" style="edgeStyle=none;rounded=0;orthogonalLoop=1;jettySize=auto;html=1;exitX=1;exitY=0.5;exitDx=0;exitDy=0;entryX=0;entryY=0.5;entryDx=0;entryDy=0;fontSize=18;endArrow=none;endFill=0;" parent="1" source="uQF2bjW9X4T5isOUZy0i-75" target="uQF2bjW9X4T5isOUZy0i-84" edge="1">
          <mxGeometry relative="1" as="geometry" />
        </mxCell>
        <mxCell id="uQF2bjW9X4T5isOUZy0i-75" value="" style="ellipse;whiteSpace=wrap;html=1;aspect=fixed;fillColor=none;" parent="1" vertex="1">
          <mxGeometry x="1190" y="519" width="30" height="30" as="geometry" />
        </mxCell>
        <mxCell id="uQF2bjW9X4T5isOUZy0i-81" style="edgeStyle=none;rounded=0;orthogonalLoop=1;jettySize=auto;html=1;exitX=1;exitY=0.5;exitDx=0;exitDy=0;entryX=0;entryY=0.5;entryDx=0;entryDy=0;fontSize=18;endArrow=none;endFill=0;" parent="1" source="uQF2bjW9X4T5isOUZy0i-82" target="uQF2bjW9X4T5isOUZy0i-85" edge="1">
          <mxGeometry relative="1" as="geometry" />
        </mxCell>
        <mxCell id="uQF2bjW9X4T5isOUZy0i-82" value="" style="ellipse;whiteSpace=wrap;html=1;aspect=fixed;" parent="1" vertex="1">
          <mxGeometry x="1310" y="480" width="30" height="30" as="geometry" />
        </mxCell>
        <mxCell id="uQF2bjW9X4T5isOUZy0i-83" style="edgeStyle=none;rounded=0;orthogonalLoop=1;jettySize=auto;html=1;exitX=1;exitY=0.5;exitDx=0;exitDy=0;fontSize=18;endArrow=none;endFill=0;entryX=0;entryY=0.5;entryDx=0;entryDy=0;" parent="1" source="uQF2bjW9X4T5isOUZy0i-84" target="uQF2bjW9X4T5isOUZy0i-85" edge="1">
          <mxGeometry relative="1" as="geometry">
            <mxPoint x="1570" y="560" as="targetPoint" />
          </mxGeometry>
        </mxCell>
        <mxCell id="uQF2bjW9X4T5isOUZy0i-84" value="" style="ellipse;whiteSpace=wrap;html=1;aspect=fixed;" parent="1" vertex="1">
          <mxGeometry x="1310" y="555" width="30" height="30" as="geometry" />
        </mxCell>
        <mxCell id="uQF2bjW9X4T5isOUZy0i-85" value="" style="ellipse;whiteSpace=wrap;html=1;aspect=fixed;" parent="1" vertex="1">
          <mxGeometry x="1464" y="520" width="30" height="30" as="geometry" />
        </mxCell>
        <mxCell id="uQF2bjW9X4T5isOUZy0i-99" value="&lt;font style=&quot;font-size: 27px&quot; face=&quot;Georgia&quot;&gt;rest&lt;/font&gt;" style="text;html=1;align=center;verticalAlign=middle;resizable=0;points=[];autosize=1;strokeColor=none;fillColor=none;" parent="1" vertex="1">
          <mxGeometry x="1225" y="485" width="60" height="20" as="geometry" />
        </mxCell>
        <mxCell id="uQF2bjW9X4T5isOUZy0i-100" value="&lt;font style=&quot;font-size: 27px&quot; face=&quot;Georgia&quot;&gt;reset&lt;/font&gt;" style="text;html=1;align=center;verticalAlign=middle;resizable=0;points=[];autosize=1;strokeColor=none;fillColor=none;" parent="1" vertex="1">
          <mxGeometry x="1230" y="565" width="70" height="20" as="geometry" />
        </mxCell>
        <mxCell id="uQF2bjW9X4T5isOUZy0i-104" value="&lt;font style=&quot;font-size: 27px&quot; face=&quot;Georgia&quot;&gt;&amp;lt;/s&amp;gt;\&amp;lt;s&amp;gt;&lt;/font&gt;" style="text;html=1;align=center;verticalAlign=middle;resizable=0;points=[];autosize=1;strokeColor=none;fillColor=none;" parent="1" vertex="1">
          <mxGeometry x="1348" y="475" width="130" height="20" as="geometry" />
        </mxCell>
        <mxCell id="uQF2bjW9X4T5isOUZy0i-105" value="&lt;font style=&quot;font-size: 27px&quot; face=&quot;Georgia&quot;&gt;&amp;lt;/s&amp;gt;\&amp;lt;s&amp;gt;&lt;/font&gt;" style="text;html=1;align=center;verticalAlign=middle;resizable=0;points=[];autosize=1;strokeColor=none;fillColor=none;" parent="1" vertex="1">
          <mxGeometry x="1348" y="575" width="130" height="20" as="geometry" />
        </mxCell>
        <mxCell id="LwhTmWAjGXsf5G4LRFbt-55" style="edgeStyle=none;rounded=0;orthogonalLoop=1;jettySize=auto;html=1;exitX=1;exitY=0.5;exitDx=0;exitDy=0;fontColor=#FF0000;endArrow=none;endFill=0;strokeColor=#000000;entryX=0;entryY=0.5;entryDx=0;entryDy=0;" parent="1" source="LwhTmWAjGXsf5G4LRFbt-5" target="LwhTmWAjGXsf5G4LRFbt-28" edge="1">
          <mxGeometry relative="1" as="geometry">
            <mxPoint x="1100" y="550" as="targetPoint" />
          </mxGeometry>
        </mxCell>
        <mxCell id="LwhTmWAjGXsf5G4LRFbt-5" value="" style="ellipse;whiteSpace=wrap;html=1;aspect=fixed;fillColor=none;" parent="1" vertex="1">
          <mxGeometry x="996" y="620" width="30" height="30" as="geometry" />
        </mxCell>
        <mxCell id="LwhTmWAjGXsf5G4LRFbt-54" style="edgeStyle=none;rounded=0;orthogonalLoop=1;jettySize=auto;html=1;exitX=1;exitY=0.5;exitDx=0;exitDy=0;fontColor=#FF0000;endArrow=none;endFill=0;strokeColor=#FF0000;entryX=0;entryY=0.5;entryDx=0;entryDy=0;" parent="1" source="LwhTmWAjGXsf5G4LRFbt-6" target="LwhTmWAjGXsf5G4LRFbt-28" edge="1">
          <mxGeometry relative="1" as="geometry">
            <mxPoint x="1090" y="550" as="targetPoint" />
          </mxGeometry>
        </mxCell>
        <mxCell id="LwhTmWAjGXsf5G4LRFbt-6" value="" style="ellipse;whiteSpace=wrap;html=1;aspect=fixed;fontColor=#FF0000;fillColor=#FF0000;strokeColor=#FF0000;" parent="1" vertex="1">
          <mxGeometry x="996" y="561" width="30" height="30" as="geometry" />
        </mxCell>
        <mxCell id="LwhTmWAjGXsf5G4LRFbt-35" style="edgeStyle=none;rounded=0;orthogonalLoop=1;jettySize=auto;html=1;exitX=1;exitY=0.5;exitDx=0;exitDy=0;entryX=0;entryY=0.5;entryDx=0;entryDy=0;fontColor=#FF0000;endArrow=none;endFill=0;strokeColor=#000000;" parent="1" source="LwhTmWAjGXsf5G4LRFbt-7" target="LwhTmWAjGXsf5G4LRFbt-28" edge="1">
          <mxGeometry relative="1" as="geometry" />
        </mxCell>
        <mxCell id="LwhTmWAjGXsf5G4LRFbt-7" value="" style="ellipse;whiteSpace=wrap;html=1;aspect=fixed;fillColor=none;" parent="1" vertex="1">
          <mxGeometry x="996" y="416" width="30" height="30" as="geometry" />
        </mxCell>
        <mxCell id="LwhTmWAjGXsf5G4LRFbt-10" value="&lt;font style=&quot;font-size: 27px&quot; face=&quot;Georgia&quot;&gt;on&lt;/font&gt;" style="text;html=1;align=center;verticalAlign=middle;resizable=0;points=[];autosize=1;strokeColor=none;fillColor=none;fontColor=#000000;" parent="1" vertex="1">
          <mxGeometry x="1050" y="453" width="50" height="20" as="geometry" />
        </mxCell>
        <mxCell id="LwhTmWAjGXsf5G4LRFbt-17" style="edgeStyle=none;rounded=0;orthogonalLoop=1;jettySize=auto;html=1;exitX=1;exitY=0.5;exitDx=0;exitDy=0;entryX=0;entryY=0.5;entryDx=0;entryDy=0;fontColor=#000000;endArrow=none;endFill=0;strokeColor=#000000;" parent="1" source="LwhTmWAjGXsf5G4LRFbt-15" target="LwhTmWAjGXsf5G4LRFbt-7" edge="1">
          <mxGeometry relative="1" as="geometry" />
        </mxCell>
        <mxCell id="LwhTmWAjGXsf5G4LRFbt-15" value="" style="ellipse;whiteSpace=wrap;html=1;aspect=fixed;" parent="1" vertex="1">
          <mxGeometry x="848" y="416" width="30" height="30" as="geometry" />
        </mxCell>
        <mxCell id="LwhTmWAjGXsf5G4LRFbt-23" style="edgeStyle=none;rounded=0;orthogonalLoop=1;jettySize=auto;html=1;exitX=1;exitY=0.5;exitDx=0;exitDy=0;entryX=0;entryY=0.5;entryDx=0;entryDy=0;fontColor=#FF0000;endArrow=none;endFill=0;strokeColor=#FF0000;" parent="1" source="LwhTmWAjGXsf5G4LRFbt-19" target="LwhTmWAjGXsf5G4LRFbt-21" edge="1">
          <mxGeometry relative="1" as="geometry" />
        </mxCell>
        <mxCell id="LwhTmWAjGXsf5G4LRFbt-19" value="" style="ellipse;whiteSpace=wrap;html=1;aspect=fixed;fontColor=#FF0000;fillColor=#FF0000;strokeColor=#FF0000;" parent="1" vertex="1">
          <mxGeometry x="730" y="561" width="30" height="30" as="geometry" />
        </mxCell>
        <mxCell id="LwhTmWAjGXsf5G4LRFbt-20" value="&lt;font style=&quot;font-size: 27px&quot; face=&quot;Georgia&quot;&gt;&amp;lt;/s&amp;gt;\&amp;lt;s&amp;gt;&lt;/font&gt;" style="text;html=1;align=center;verticalAlign=middle;resizable=0;points=[];autosize=1;strokeColor=none;fillColor=none;fontColor=#FF0000;" parent="1" vertex="1">
          <mxGeometry x="871" y="463" width="130" height="20" as="geometry" />
        </mxCell>
        <mxCell id="LwhTmWAjGXsf5G4LRFbt-24" style="edgeStyle=none;rounded=0;orthogonalLoop=1;jettySize=auto;html=1;exitX=1;exitY=0.5;exitDx=0;exitDy=0;entryX=0;entryY=0.5;entryDx=0;entryDy=0;fontColor=#FF0000;endArrow=none;endFill=0;strokeColor=#FF0000;" parent="1" source="LwhTmWAjGXsf5G4LRFbt-21" target="LwhTmWAjGXsf5G4LRFbt-6" edge="1">
          <mxGeometry relative="1" as="geometry" />
        </mxCell>
        <mxCell id="LwhTmWAjGXsf5G4LRFbt-21" value="" style="ellipse;whiteSpace=wrap;html=1;aspect=fixed;fontColor=#FF0000;fillColor=#FF0000;strokeColor=#FF0000;" parent="1" vertex="1">
          <mxGeometry x="848" y="561" width="30" height="30" as="geometry" />
        </mxCell>
        <mxCell id="LwhTmWAjGXsf5G4LRFbt-25" style="edgeStyle=none;rounded=0;orthogonalLoop=1;jettySize=auto;html=1;exitX=1;exitY=0.5;exitDx=0;exitDy=0;entryX=0;entryY=0.5;entryDx=0;entryDy=0;fontColor=#FF0000;endArrow=none;endFill=0;strokeColor=#000000;" parent="1" source="LwhTmWAjGXsf5G4LRFbt-22" target="LwhTmWAjGXsf5G4LRFbt-5" edge="1">
          <mxGeometry relative="1" as="geometry" />
        </mxCell>
        <mxCell id="LwhTmWAjGXsf5G4LRFbt-22" value="" style="ellipse;whiteSpace=wrap;html=1;aspect=fixed;" parent="1" vertex="1">
          <mxGeometry x="848" y="620" width="30" height="30" as="geometry" />
        </mxCell>
        <mxCell id="LwhTmWAjGXsf5G4LRFbt-26" value="&lt;font style=&quot;font-size: 27px&quot; face=&quot;Georgia&quot;&gt;book&lt;/font&gt;" style="text;html=1;align=center;verticalAlign=middle;resizable=0;points=[];autosize=1;strokeColor=none;fillColor=none;fontColor=#FF0000;" parent="1" vertex="1">
          <mxGeometry x="770" y="551" width="70" height="20" as="geometry" />
        </mxCell>
        <mxCell id="LwhTmWAjGXsf5G4LRFbt-27" value="&lt;font style=&quot;font-size: 27px&quot; face=&quot;Georgia&quot;&gt;book&lt;/font&gt;" style="text;html=1;align=center;verticalAlign=middle;resizable=0;points=[];autosize=1;strokeColor=none;fillColor=none;fontColor=#000000;" parent="1" vertex="1">
          <mxGeometry x="770" y="611" width="70" height="20" as="geometry" />
        </mxCell>
        <mxCell id="LwhTmWAjGXsf5G4LRFbt-34" style="edgeStyle=none;rounded=0;orthogonalLoop=1;jettySize=auto;html=1;exitX=1;exitY=0.5;exitDx=0;exitDy=0;entryX=0;entryY=0.5;entryDx=0;entryDy=0;fontColor=#FF0000;endArrow=none;endFill=0;strokeColor=#000000;" parent="1" source="LwhTmWAjGXsf5G4LRFbt-28" target="uQF2bjW9X4T5isOUZy0i-75" edge="1">
          <mxGeometry relative="1" as="geometry" />
        </mxCell>
        <mxCell id="LwhTmWAjGXsf5G4LRFbt-28" value="" style="ellipse;whiteSpace=wrap;html=1;aspect=fixed;fillColor=none;" parent="1" vertex="1">
          <mxGeometry x="1111" y="520" width="30" height="30" as="geometry" />
        </mxCell>
        <mxCell id="LwhTmWAjGXsf5G4LRFbt-38" value="&lt;font style=&quot;font-size: 27px&quot; face=&quot;Georgia&quot;&gt;&amp;lt;/s&amp;gt;\&amp;lt;s&amp;gt;&lt;/font&gt;" style="text;html=1;align=center;verticalAlign=middle;resizable=0;points=[];autosize=1;strokeColor=none;fillColor=none;fontColor=#000000;" parent="1" vertex="1">
          <mxGeometry x="871" y="610" width="130" height="20" as="geometry" />
        </mxCell>
        <mxCell id="LwhTmWAjGXsf5G4LRFbt-39" value="&lt;font style=&quot;font-size: 27px&quot; face=&quot;Georgia&quot;&gt;&amp;lt;/s&amp;gt;\&amp;lt;s&amp;gt;&lt;/font&gt;" style="text;html=1;align=center;verticalAlign=middle;resizable=0;points=[];autosize=1;strokeColor=none;fillColor=none;fontColor=#FF0000;" parent="1" vertex="1">
          <mxGeometry x="871" y="551" width="130" height="20" as="geometry" />
        </mxCell>
        <mxCell id="LwhTmWAjGXsf5G4LRFbt-41" value="&lt;font style=&quot;font-size: 27px&quot; face=&quot;Georgia&quot;&gt;a&lt;/font&gt;" style="text;html=1;align=center;verticalAlign=middle;resizable=0;points=[];autosize=1;strokeColor=none;fillColor=none;fontColor=#000000;" parent="1" vertex="1">
          <mxGeometry x="1150" y="507" width="30" height="20" as="geometry" />
        </mxCell>
        <mxCell id="LwhTmWAjGXsf5G4LRFbt-46" style="edgeStyle=none;rounded=0;orthogonalLoop=1;jettySize=auto;html=1;exitX=1;exitY=0.5;exitDx=0;exitDy=0;entryX=0;entryY=0.5;entryDx=0;entryDy=0;fontColor=#000000;endArrow=none;endFill=0;strokeColor=#FF0000;" parent="1" source="LwhTmWAjGXsf5G4LRFbt-44" target="uQF2bjW9X4T5isOUZy0i-33" edge="1">
          <mxGeometry relative="1" as="geometry" />
        </mxCell>
        <mxCell id="LwhTmWAjGXsf5G4LRFbt-44" value="" style="ellipse;whiteSpace=wrap;html=1;aspect=fixed;fontColor=#FF0000;fillColor=#FF0000;strokeColor=#FF0000;" parent="1" vertex="1">
          <mxGeometry x="609" y="474" width="30" height="30" as="geometry" />
        </mxCell>
        <mxCell id="LwhTmWAjGXsf5G4LRFbt-47" style="edgeStyle=none;rounded=0;orthogonalLoop=1;jettySize=auto;html=1;exitX=1;exitY=0.5;exitDx=0;exitDy=0;entryX=0;entryY=0.5;entryDx=0;entryDy=0;fontColor=#000000;endArrow=none;endFill=0;strokeColor=#FF0000;" parent="1" source="LwhTmWAjGXsf5G4LRFbt-45" target="LwhTmWAjGXsf5G4LRFbt-19" edge="1">
          <mxGeometry relative="1" as="geometry" />
        </mxCell>
        <mxCell id="LwhTmWAjGXsf5G4LRFbt-45" value="" style="ellipse;whiteSpace=wrap;html=1;aspect=fixed;fontColor=#FF0000;fillColor=#FF0000;strokeColor=#FF0000;" parent="1" vertex="1">
          <mxGeometry x="609" y="561" width="30" height="30" as="geometry" />
        </mxCell>
        <mxCell id="LwhTmWAjGXsf5G4LRFbt-51" value="&lt;font style=&quot;font-size: 27px&quot; face=&quot;Georgia&quot;&gt;is&lt;/font&gt;" style="text;html=1;align=center;verticalAlign=middle;resizable=0;points=[];autosize=1;fillColor=none;fontColor=#FF0000;" parent="1" vertex="1">
          <mxGeometry x="560" y="563" width="40" height="20" as="geometry" />
        </mxCell>
        <mxCell id="LwhTmWAjGXsf5G4LRFbt-52" value="&lt;font style=&quot;font-size: 27px&quot; face=&quot;Georgia&quot;&gt;is&lt;/font&gt;" style="text;html=1;align=center;verticalAlign=middle;resizable=0;points=[];autosize=1;fillColor=none;fontColor=#FF0000;" parent="1" vertex="1">
          <mxGeometry x="560" y="480" width="40" height="20" as="geometry" />
        </mxCell>
        <mxCell id="LwhTmWAjGXsf5G4LRFbt-56" value="&lt;font style=&quot;font-size: 27px&quot; face=&quot;Georgia&quot;&gt;on&lt;/font&gt;" style="text;html=1;align=center;verticalAlign=middle;resizable=0;points=[];autosize=1;strokeColor=none;fillColor=none;fontColor=#FF0000;" parent="1" vertex="1">
          <mxGeometry x="1017" y="500" width="50" height="20" as="geometry" />
        </mxCell>
        <mxCell id="LwhTmWAjGXsf5G4LRFbt-57" value="&lt;font style=&quot;font-size: 27px&quot; face=&quot;Georgia&quot;&gt;on&lt;/font&gt;" style="text;html=1;align=center;verticalAlign=middle;resizable=0;points=[];autosize=1;strokeColor=none;fillColor=none;fontColor=#FF0000;" parent="1" vertex="1">
          <mxGeometry x="1017" y="540" width="50" height="20" as="geometry" />
        </mxCell>
        <mxCell id="LwhTmWAjGXsf5G4LRFbt-58" value="&lt;font style=&quot;font-size: 27px&quot; face=&quot;Georgia&quot;&gt;on&lt;/font&gt;" style="text;html=1;align=center;verticalAlign=middle;resizable=0;points=[];autosize=1;strokeColor=none;fillColor=none;fontColor=#000000;" parent="1" vertex="1">
          <mxGeometry x="1050" y="591" width="50" height="20" as="geometry" />
        </mxCell>
        <mxCell id="5CpdGke6OMUvPAaMOOam-2" style="edgeStyle=orthogonalEdgeStyle;rounded=0;orthogonalLoop=1;jettySize=auto;html=1;exitX=1;exitY=0.5;exitDx=0;exitDy=0;entryX=0;entryY=0.5;entryDx=0;entryDy=0;endArrow=none;endFill=0;" edge="1" parent="1" source="5CpdGke6OMUvPAaMOOam-1" target="uQF2bjW9X4T5isOUZy0i-22">
          <mxGeometry relative="1" as="geometry" />
        </mxCell>
        <mxCell id="5CpdGke6OMUvPAaMOOam-1" value="" style="ellipse;whiteSpace=wrap;html=1;aspect=fixed;" vertex="1" parent="1">
          <mxGeometry x="390" y="448.5" width="30" height="30" as="geometry" />
        </mxCell>
        <mxCell id="5CpdGke6OMUvPAaMOOam-4" style="edgeStyle=orthogonalEdgeStyle;rounded=0;orthogonalLoop=1;jettySize=auto;html=1;exitX=1;exitY=0.5;exitDx=0;exitDy=0;entryX=0;entryY=0.5;entryDx=0;entryDy=0;endArrow=none;endFill=0;" edge="1" parent="1" source="5CpdGke6OMUvPAaMOOam-3" target="uQF2bjW9X4T5isOUZy0i-47">
          <mxGeometry relative="1" as="geometry" />
        </mxCell>
        <mxCell id="5CpdGke6OMUvPAaMOOam-3" value="" style="ellipse;whiteSpace=wrap;html=1;aspect=fixed;" vertex="1" parent="1">
          <mxGeometry x="390" y="591.5" width="30" height="30" as="geometry" />
        </mxCell>
        <mxCell id="5CpdGke6OMUvPAaMOOam-7" value="&lt;font style=&quot;font-size: 27px&quot; face=&quot;Georgia&quot;&gt;and&lt;/font&gt;" style="text;html=1;align=center;verticalAlign=middle;resizable=0;points=[];autosize=1;strokeColor=none;fillColor=none;" vertex="1" parent="1">
          <mxGeometry x="300" y="475" width="60" height="20" as="geometry" />
        </mxCell>
        <mxCell id="5CpdGke6OMUvPAaMOOam-8" value="&lt;font style=&quot;font-size: 27px&quot; face=&quot;Georgia&quot;&gt;add&lt;/font&gt;" style="text;html=1;align=center;verticalAlign=middle;resizable=0;points=[];autosize=1;strokeColor=none;fillColor=none;" vertex="1" parent="1">
          <mxGeometry x="300" y="575" width="60" height="20" as="geometry" />
        </mxCell>
      </root>
    </mxGraphModel>
  </diagram>
</mxfile>
